<svg width="36" height="36" viewBox="0 0 36 36" fill="none" xmlns="http://www.w3.org/2000/svg">
<rect width="36" height="36" rx="18" fill="white"/>
<path d="M16.4392 24.2324C16.5333 24.2325 16.6264 24.2512 16.7132 24.2874C16.8001 24.3236 16.879 24.3766 16.9454 24.4434C17.0118 24.5101 17.0644 24.5894 17.1003 24.6765C17.1362 24.7637 17.1546 24.8571 17.1544 24.9514C17.1543 25.0456 17.1357 25.139 17.0995 25.226C17.0634 25.3131 17.0105 25.3922 16.9439 25.4588C16.8773 25.5253 16.7983 25.5781 16.7113 25.6141C16.6244 25.65 16.5312 25.6685 16.4372 25.6683C16.2472 25.6681 16.0651 25.5921 15.931 25.4573C15.7968 25.3225 15.7216 25.1397 15.7219 24.9493C15.7222 24.7589 15.7979 24.5764 15.9324 24.4419C16.0669 24.3075 16.2492 24.2321 16.4392 24.2324ZM27.6714 19.7927C27.5773 19.7926 27.4842 19.774 27.3973 19.7379C27.3104 19.7017 27.2315 19.6488 27.165 19.582C27.0986 19.5153 27.0459 19.4361 27.0099 19.349C26.974 19.2619 26.9555 19.1685 26.9556 19.0742C26.9557 18.9799 26.9743 18.8866 27.0103 18.7995C27.0464 18.7124 27.0992 18.6333 27.1658 18.5667C27.2323 18.5 27.3113 18.4472 27.3982 18.4112C27.4852 18.3752 27.5783 18.3567 27.6724 18.3567C27.8624 18.3569 28.0445 18.4326 28.1787 18.5674C28.313 18.7021 28.3883 18.8848 28.3882 19.0752C28.388 19.2657 28.3124 19.4482 28.178 19.5828C28.0436 19.7173 27.8613 19.7928 27.6714 19.7927ZM27.6714 16.8554C27.0841 16.8559 26.521 17.09 26.1057 17.5063C25.6904 17.9226 25.4569 18.487 25.4563 19.0757C25.4563 19.3137 25.4961 19.5507 25.5735 19.7815L18.2569 23.686C18.054 23.3907 17.7825 23.1493 17.4659 22.9826C17.1492 22.8158 16.7969 22.7288 16.4392 22.729C15.5945 22.729 14.8253 23.2141 14.4524 23.9709L7.87954 20.4964C7.18466 20.1308 6.66503 18.9848 6.72005 17.9411C6.74858 17.3967 6.93606 16.9739 7.22236 16.8105C7.40372 16.7083 7.62177 16.7165 7.85407 16.838L7.89686 16.8615C9.63916 17.7807 15.3388 20.7905 15.5793 20.9018C15.9491 21.0745 16.1549 21.1439 16.7866 20.8436L28.569 14.7015C28.7422 14.6361 28.944 14.4696 28.944 14.2173C28.944 13.8681 28.5833 13.7302 28.5823 13.7302C27.9118 13.4085 26.8817 12.9254 25.8771 12.4535C23.7293 11.4455 21.2952 10.3037 20.2264 9.74195C19.3033 9.25785 18.5605 9.66637 18.4281 9.74808L18.1713 9.87574C13.3601 12.2605 6.92077 15.4572 6.55397 15.6809C5.89883 16.0812 5.4923 16.8789 5.43932 17.8685C5.3578 19.4383 6.15559 21.0755 7.29776 21.675L14.2486 25.268C14.3252 25.7958 14.5886 26.2783 14.9908 26.6275C15.393 26.9766 15.9071 27.1691 16.4392 27.1697C17.0203 27.1687 17.5778 26.9391 17.9918 26.5304C18.4059 26.1217 18.6434 25.5664 18.6532 24.984L26.3091 20.8242C26.6963 21.1286 27.1782 21.2951 27.6714 21.2951C28.2587 21.2945 28.8218 21.0604 29.2371 20.6441C29.6523 20.2279 29.8859 19.6634 29.8864 19.0747C29.8859 18.486 29.6523 17.9216 29.2371 17.5053C28.8218 17.089 28.2587 16.8549 27.6714 16.8544" fill="#130F0F"/>
</svg>
