<svg width="67" height="1055" viewBox="0 0 67 1055" fill="none" xmlns="http://www.w3.org/2000/svg">
<g filter="url(#filter0_d_1_146)">
<line x1="33.5" y1="33" x2="33.5" y2="1038" stroke="#FF0000"/>
</g>
<g filter="url(#filter1_d_1_146)">
<path d="M20 611.5C20 604.044 26.0442 598 33.5 598C40.9558 598 47 604.044 47 611.5C47 618.956 40.9558 625 33.5 625C26.0442 625 20 618.956 20 611.5Z" fill="#151010"/>
<path d="M20.5 611.5C20.5 604.32 26.3203 598.5 33.5 598.5C40.6797 598.5 46.5 604.32 46.5 611.5C46.5 618.68 40.6797 624.5 33.5 624.5C26.3203 624.5 20.5 618.68 20.5 611.5Z" stroke="url(#paint0_linear_1_146)"/>
</g>
<g filter="url(#filter2_d_1_146)">
<path d="M20 311.5C20 304.044 26.0442 298 33.5 298C40.9558 298 47 304.044 47 311.5C47 318.956 40.9558 325 33.5 325C26.0442 325 20 318.956 20 311.5Z" fill="#151010"/>
<path d="M20.5 311.5C20.5 304.32 26.3203 298.5 33.5 298.5C40.6797 298.5 46.5 304.32 46.5 311.5C46.5 318.68 40.6797 324.5 33.5 324.5C26.3203 324.5 20.5 318.68 20.5 311.5Z" stroke="url(#paint1_linear_1_146)"/>
</g>
<g filter="url(#filter3_d_1_146)">
<path d="M20 130.5C20 123.044 26.0442 117 33.5 117C40.9558 117 47 123.044 47 130.5C47 137.956 40.9558 144 33.5 144C26.0442 144 20 137.956 20 130.5Z" fill="#151010"/>
<path d="M20.5 130.5C20.5 123.32 26.3203 117.5 33.5 117.5C40.6797 117.5 46.5 123.32 46.5 130.5C46.5 137.68 40.6797 143.5 33.5 143.5C26.3203 143.5 20.5 137.68 20.5 130.5Z" stroke="url(#paint2_linear_1_146)"/>
</g>
<g filter="url(#filter4_d_1_146)">
<path d="M20 33.5C20 26.0442 26.0442 20 33.5 20C40.9558 20 47 26.0442 47 33.5C47 40.9558 40.9558 47 33.5 47C26.0442 47 20 40.9558 20 33.5Z" fill="#151010"/>
<path d="M20.5 33.5C20.5 26.3203 26.3203 20.5 33.5 20.5C40.6797 20.5 46.5 26.3203 46.5 33.5C46.5 40.6797 40.6797 46.5 33.5 46.5C26.3203 46.5 20.5 40.6797 20.5 33.5Z" stroke="url(#paint3_linear_1_146)"/>
</g>
<defs>
<filter id="filter0_d_1_146" x="20.3" y="24.3" width="26.4" height="1030.4" filterUnits="userSpaceOnUse" color-interpolation-filters="sRGB">
<feFlood flood-opacity="0" result="BackgroundImageFix"/>
<feColorMatrix in="SourceAlpha" type="matrix" values="0 0 0 0 0 0 0 0 0 0 0 0 0 0 0 0 0 0 127 0" result="hardAlpha"/>
<feOffset dy="4"/>
<feGaussianBlur stdDeviation="6.35"/>
<feComposite in2="hardAlpha" operator="out"/>
<feColorMatrix type="matrix" values="0 0 0 0 1 0 0 0 0 0 0 0 0 0 0.176471 0 0 0 1 0"/>
<feBlend mode="normal" in2="BackgroundImageFix" result="effect1_dropShadow_1_146"/>
<feBlend mode="normal" in="SourceGraphic" in2="effect1_dropShadow_1_146" result="shape"/>
</filter>
<filter id="filter1_d_1_146" x="0" y="578" width="67" height="67" filterUnits="userSpaceOnUse" color-interpolation-filters="sRGB">
<feFlood flood-opacity="0" result="BackgroundImageFix"/>
<feColorMatrix in="SourceAlpha" type="matrix" values="0 0 0 0 0 0 0 0 0 0 0 0 0 0 0 0 0 0 127 0" result="hardAlpha"/>
<feOffset/>
<feGaussianBlur stdDeviation="10"/>
<feComposite in2="hardAlpha" operator="out"/>
<feColorMatrix type="matrix" values="0 0 0 0 1 0 0 0 0 0 0 0 0 0 0 0 0 0 0.5 0"/>
<feBlend mode="normal" in2="BackgroundImageFix" result="effect1_dropShadow_1_146"/>
<feBlend mode="normal" in="SourceGraphic" in2="effect1_dropShadow_1_146" result="shape"/>
</filter>
<filter id="filter2_d_1_146" x="0" y="278" width="67" height="67" filterUnits="userSpaceOnUse" color-interpolation-filters="sRGB">
<feFlood flood-opacity="0" result="BackgroundImageFix"/>
<feColorMatrix in="SourceAlpha" type="matrix" values="0 0 0 0 0 0 0 0 0 0 0 0 0 0 0 0 0 0 127 0" result="hardAlpha"/>
<feOffset/>
<feGaussianBlur stdDeviation="10"/>
<feComposite in2="hardAlpha" operator="out"/>
<feColorMatrix type="matrix" values="0 0 0 0 1 0 0 0 0 0 0 0 0 0 0 0 0 0 0.5 0"/>
<feBlend mode="normal" in2="BackgroundImageFix" result="effect1_dropShadow_1_146"/>
<feBlend mode="normal" in="SourceGraphic" in2="effect1_dropShadow_1_146" result="shape"/>
</filter>
<filter id="filter3_d_1_146" x="0" y="97" width="67" height="67" filterUnits="userSpaceOnUse" color-interpolation-filters="sRGB">
<feFlood flood-opacity="0" result="BackgroundImageFix"/>
<feColorMatrix in="SourceAlpha" type="matrix" values="0 0 0 0 0 0 0 0 0 0 0 0 0 0 0 0 0 0 127 0" result="hardAlpha"/>
<feOffset/>
<feGaussianBlur stdDeviation="10"/>
<feComposite in2="hardAlpha" operator="out"/>
<feColorMatrix type="matrix" values="0 0 0 0 1 0 0 0 0 0 0 0 0 0 0 0 0 0 0.5 0"/>
<feBlend mode="normal" in2="BackgroundImageFix" result="effect1_dropShadow_1_146"/>
<feBlend mode="normal" in="SourceGraphic" in2="effect1_dropShadow_1_146" result="shape"/>
</filter>
<filter id="filter4_d_1_146" x="0" y="0" width="67" height="67" filterUnits="userSpaceOnUse" color-interpolation-filters="sRGB">
<feFlood flood-opacity="0" result="BackgroundImageFix"/>
<feColorMatrix in="SourceAlpha" type="matrix" values="0 0 0 0 0 0 0 0 0 0 0 0 0 0 0 0 0 0 127 0" result="hardAlpha"/>
<feOffset/>
<feGaussianBlur stdDeviation="10"/>
<feComposite in2="hardAlpha" operator="out"/>
<feColorMatrix type="matrix" values="0 0 0 0 1 0 0 0 0 0 0 0 0 0 0 0 0 0 0.5 0"/>
<feBlend mode="normal" in2="BackgroundImageFix" result="effect1_dropShadow_1_146"/>
<feBlend mode="normal" in="SourceGraphic" in2="effect1_dropShadow_1_146" result="shape"/>
</filter>
<linearGradient id="paint0_linear_1_146" x1="20" y1="611.5" x2="47" y2="611.5" gradientUnits="userSpaceOnUse">
<stop stop-color="#FF0000"/>
<stop offset="1" stop-color="#990000"/>
</linearGradient>
<linearGradient id="paint1_linear_1_146" x1="20" y1="311.5" x2="47" y2="311.5" gradientUnits="userSpaceOnUse">
<stop stop-color="#FF0000"/>
<stop offset="1" stop-color="#990000"/>
</linearGradient>
<linearGradient id="paint2_linear_1_146" x1="20" y1="130.5" x2="47" y2="130.5" gradientUnits="userSpaceOnUse">
<stop stop-color="#FF0000"/>
<stop offset="1" stop-color="#990000"/>
</linearGradient>
<linearGradient id="paint3_linear_1_146" x1="20" y1="33.5" x2="47" y2="33.5" gradientUnits="userSpaceOnUse">
<stop stop-color="#FF0000"/>
<stop offset="1" stop-color="#990000"/>
</linearGradient>
</defs>
</svg>
