<svg width="36" height="36" viewBox="0 0 36 36" fill="none" xmlns="http://www.w3.org/2000/svg">
<path d="M36 18C36 27.9411 27.9411 36 18 36C8.05888 36 0 27.9411 0 18C0 8.05888 8.05888 0 18 0C27.9411 0 36 8.05888 36 18Z" fill="white"/>
<path d="M26.5087 10.1484C26.4896 10.1331 26.4617 10.1307 26.4394 10.1208C24.8984 9.43127 23.2314 8.93036 21.4954 8.64005C21.4801 8.63958 21.4649 8.64235 21.4508 8.64818C21.4229 8.65968 21.4063 8.68698 21.3916 8.71323C21.3698 8.75224 21.3476 8.79237 21.3252 8.83336C20.9881 9.45085 20.3142 9.82293 19.6131 9.76447C18.6011 9.68009 17.5837 9.67518 16.571 9.74974C15.7603 9.80943 14.9875 9.37184 14.5709 8.67379C14.5426 8.61928 14.4588 8.64508 14.3983 8.65548C12.6927 8.94841 11.0654 9.44495 9.53807 10.1241C9.52058 10.1319 9.50214 10.1355 9.48769 10.1481C9.48091 10.1539 9.47396 10.1622 9.46885 10.1696C6.30434 14.7432 5.4318 19.1934 5.86278 23.5986C5.86278 23.6452 5.91701 23.6685 5.95507 23.6953C8.03283 25.1559 10.031 26.0447 12.0063 26.6353C12.0641 26.654 12.1063 26.5885 12.1426 26.5397C12.5871 25.9429 12.988 25.315 13.3352 24.6559C13.3585 24.6109 13.3352 24.5659 13.2886 24.5546C12.6241 24.3072 11.9946 24.0148 11.3768 23.6774C11.2902 23.6356 11.4048 23.5262 11.4821 23.4691C11.5476 23.4207 11.6131 23.3711 11.6787 23.3234C11.7257 23.2891 11.779 23.2359 11.8314 23.2612C15.8416 25.027 20.1665 25.027 24.13 23.2612C24.1533 23.25 24.1883 23.25 24.2116 23.2725C24.3399 23.3737 24.4681 23.4637 24.5963 23.5649C24.6798 23.6253 24.54 23.7148 24.4498 23.7648C23.8837 24.0786 23.2883 24.3367 22.6728 24.5659C22.5922 24.5853 22.646 24.7038 22.6862 24.7764C23.0264 25.3907 23.4039 25.9777 23.8102 26.5374C23.8512 26.5939 23.912 26.6567 23.9785 26.6353C25.9653 26.0447 27.9636 25.1559 30.0413 23.6953C30.0794 23.6685 30.1336 23.6452 30.1336 23.5986C30.646 18.5095 29.2857 14.0937 26.5293 10.1719C26.523 10.1629 26.5172 10.1552 26.5087 10.1484ZM13.9414 20.9106C12.7407 20.9106 11.7381 19.8421 11.7381 18.5262C11.7381 17.2103 12.7174 16.1418 13.9414 16.1418C15.1771 16.1418 16.1563 17.2216 16.1447 18.5262C16.1447 19.8421 15.1654 20.9106 13.9414 20.9106ZM22.0667 20.9106C20.8659 20.9106 19.8634 19.8421 19.8634 18.5262C19.8634 17.2103 20.8426 16.1418 22.0667 16.1418C23.3023 16.1418 24.2816 17.2216 24.2699 18.5262C24.2699 19.8421 23.3023 20.9106 22.0667 20.9106Z" fill="#130F0F"/>
</svg>
