<svg width="39" height="38" viewBox="0 0 39 38" fill="none" xmlns="http://www.w3.org/2000/svg">
<rect x="7.30859" y="26.2549" width="7.84118" height="7.84118" rx="3.92059" transform="rotate(-45 7.30859 26.2549)" fill="#FF0000"/>
<rect x="14.5098" y="33.4551" width="7.84118" height="7.84118" rx="3.92059" transform="rotate(-45 14.5098 33.4551)" fill="#FF0000"/>
<rect x="21.7832" y="26.1826" width="7.84118" height="7.84118" rx="3.92059" transform="rotate(-45 21.7832 26.1826)" fill="#FF0000"/>
<rect x="14.2227" y="4.72461" width="7.84118" height="7.84118" rx="3.92059" transform="rotate(-45 14.2227 4.72461)" fill="#FF0000"/>
<path d="M6.50839 15.2358L5.86469 15.152C4.70952 15.0017 3.55002 15.3963 2.7263 16.22C1.26052 17.6858 1.26052 20.0623 2.7263 21.5281L2.89855 21.7003C4.45946 23.2612 6.9902 23.2612 8.55111 21.7003L8.60163 21.6498C9.3646 20.8868 9.79324 19.852 9.79324 18.773V18.0146C9.79324 16.6798 10.8753 15.5977 12.2102 15.5977L13.1786 15.5977C14.171 15.5977 15.1216 15.1979 15.8157 14.4885C17.1467 13.1283 17.1349 10.9501 15.7892 9.60441L15.2274 9.04263C13.7573 7.57253 11.3738 7.57253 9.90365 9.04263C9.07393 9.87236 8.67857 11.0415 8.83443 12.2045L8.91669 12.8183C9.10457 14.2201 7.91093 15.4183 6.50839 15.2358Z" fill="#FF0000"/>
<path d="M20.6027 15.2322L19.8973 15.2322C18.9556 15.2322 18.0484 15.5859 17.3553 16.2233C15.7831 17.6689 15.7315 20.1329 17.2418 21.6431L17.3581 21.7595C18.8864 23.2877 21.3641 23.2877 22.8923 21.7595L23.002 21.6498C23.765 20.8868 24.1936 19.852 24.1936 18.773V17.9206C24.1936 16.6749 25.2035 15.665 26.4492 15.665H27.2837C28.3419 15.665 29.3575 15.2485 30.1111 14.5055C31.493 13.143 31.5009 10.9157 30.1286 9.54348L29.7791 9.19393C28.2254 7.64026 25.7064 7.64027 24.1528 9.19393C23.4067 9.94002 22.9875 10.9519 22.9875 12.0071L22.9875 12.8473C22.9875 14.1645 21.9198 15.2322 20.6027 15.2322Z" fill="#FF0000"/>
<path d="M15.9079 18.1246L15.8863 18.9178C15.857 19.993 16.2734 21.0351 17.0339 21.7956C18.5593 23.321 21.0373 23.3259 22.5627 21.8006L22.6389 21.7244C24.1721 20.1912 24.1151 17.6883 22.5137 16.2264C21.813 15.5868 20.8984 15.2321 19.9497 15.2321L19.2935 15.2321C17.9929 15.2321 16.9385 14.1777 16.9385 12.8771L16.9385 12.043C16.9385 10.9879 16.5193 9.97593 15.7732 9.22984L15.7129 9.16954C14.1926 7.64918 11.7276 7.64918 10.2072 9.16954L10.0513 9.32553C8.55955 10.8172 8.62287 13.2546 10.19 14.6668C10.8667 15.2765 11.7452 15.614 12.656 15.614L13.4648 15.614C14.8407 15.614 15.9454 16.7492 15.9079 18.1246Z" fill="#FF0000"/>
<path d="M30.2779 18.1227L30.2779 18.9978C30.2779 20.0481 30.6951 21.0555 31.4379 21.7982C32.9845 23.3448 35.4921 23.3448 37.0387 21.7982L37.1458 21.6911C38.6619 20.1751 38.6619 17.7171 37.1458 16.2011C36.3096 15.3648 35.1379 14.9554 33.9628 15.0888L33.4758 15.1441C32.1518 15.2945 31.0245 14.1893 31.1486 12.8626L31.2085 12.2222C31.3146 11.0877 30.9097 9.96497 30.1041 9.15929C28.6093 7.66455 26.1859 7.66454 24.6911 9.15929L24.4596 9.39081C22.978 10.8724 23.0258 13.2887 24.5647 14.7106C25.2465 15.3406 26.1407 15.6905 27.069 15.6905L27.8456 15.6905C29.1889 15.6905 30.2779 16.7794 30.2779 18.1227Z" fill="#FF0000"/>
</svg>
